{
  "asset": {
    "generator": "UnityGLTF",
    "version": "2.0"
  },
  "extensionsUsed": [
    "KHR_texture_transform"
  ],
  "scene": 0,
  "scenes": [
    {
      "nodes": [
        0
      ],
      "name": "bench-damaged"
    }
  ],
  "accessors": [
    {
      "bufferView": 0,
      "componentType": 5126,
      "count": 492,
      "type": "VEC3",
      "max": [
        0.474862664937973,
        0.5039086937904358,
        0.2799627184867859
      ],
      "min": [
        -0.5519373416900635,
        -0.019281480461359024,
        -0.24594181776046753
      ]
    },
    {
      "bufferView": 1,
      "componentType": 5126,
      "count": 492,
      "type": "VEC3",
      "max": [
        0.8365163207054138,
        0.866025447845459,
        0.9659257531166077
      ],
      "min": [
        -0.8365163207054138,
        -0.866025447845459,
        -0.968204140663147
      ]
    },
    {
      "bufferView": 2,
      "componentType": 5126,
      "count": 492,
      "type": "VEC4",
      "max": [
        0.8365163207054138,
        0.5,
        0.9659257531166077,
        1
      ],
      "min": [
        -0.8365163207054138,
        -0.5,
        -0.9659257531166077,
        1
      ]
    },
    {
      "bufferView": 3,
      "componentType": 5126,
      "count": 492,
      "type": "VEC2",
      "max": [
        0.84375,
        0.9750000238418579
      ],
      "min": [
        0.09375,
        0.5249999761581421
      ]
    },
    {
      "bufferView": 4,
      "componentType": 5123,
      "count": 864,
      "type": "SCALAR",
      "max": [
        491
      ],
      "min": [
        0
      ]
    }
  ],
  "buffers": [
    {
      "uri": "bench-damaged_data.bin",
      "byteLength": 25344
    }
  ],
  "bufferViews": [
    {
      "buffer": 0,
      "byteLength": 5904,
      "byteStride": 12,
      "target": 34962,
      "byteOffset": 0
    },
    {
      "buffer": 0,
      "byteOffset": 5904,
      "byteLength": 5904,
      "byteStride": 12,
      "target": 34962
    },
    {
      "buffer": 0,
      "byteOffset": 11808,
      "byteLength": 7872,
      "target": 34962
    },
    {
      "buffer": 0,
      "byteOffset": 19680,
      "byteLength": 3936,
      "target": 34962
    },
    {
      "buffer": 0,
      "byteOffset": 23616,
      "byteLength": 1728,
      "target": 34963
    }
  ],
  "images": [
    {
      "uri": "Textures/colormap.png",
      "name": "colormap"
    }
  ],
  "materials": [
    {
      "pbrMetallicRoughness": {
        "baseColorTexture": {
          "index": 0,
          "extensions": {
            "KHR_texture_transform": {
              "texCoord": 0
            }
          }
        },
        "metallicFactor": 0
      },
      "doubleSided": true,
      "name": "colormap"
    }
  ],
  "meshes": [
    {
      "primitives": [
        {
          "attributes": {
            "POSITION": 0,
            "NORMAL": 1,
            "TANGENT": 2,
            "TEXCOORD_0": 3
          },
          "indices": 4,
          "material": 0
        }
      ],
      "name": "bench-damaged"
    }
  ],
  "nodes": [
    {
      "mesh": 0,
      "name": "bench-damaged"
    }
  ],
  "samplers": [
    {
      "magFilter": 9728,
      "minFilter": 9984
    }
  ],
  "textures": [
    {
      "sampler": 0,
      "source": 0,
      "name": "colormap"
    }
  ]
}