{
  "asset": {
    "generator": "UnityGLTF",
    "version": "2.0"
  },
  "extensionsUsed": [
    "KHR_texture_transform"
  ],
  "scene": 0,
  "scenes": [
    {
      "nodes": [
        0
      ],
      "name": "coffin"
    }
  ],
  "accessors": [
    {
      "bufferView": 0,
      "componentType": 5126,
      "count": 480,
      "type": "VEC3",
      "max": [
        0.2964000105857849,
        0.20520000159740448,
        0.5000002980232239
      ],
      "min": [
        -0.2964000105857849,
        0,
        -0.4999997019767761
      ]
    },
    {
      "bufferView": 1,
      "componentType": 5126,
      "count": 480,
      "type": "VEC3",
      "max": [
        1,
        1,
        1
      ],
      "min": [
        -1,
        -1,
        -1
      ]
    },
    {
      "bufferView": 2,
      "componentType": 5126,
      "count": 480,
      "type": "VEC4",
      "max": [
        1,
        0,
        1,
        1
      ],
      "min": [
        -1,
        0,
        -1,
        -1
      ]
    },
    {
      "bufferView": 3,
      "componentType": 5126,
      "count": 480,
      "type": "VEC2",
      "max": [
        0.21875,
        0.7250000238418579
      ],
      "min": [
        0.09375,
        0.5249999761581421
      ]
    },
    {
      "bufferView": 4,
      "componentType": 5123,
      "count": 936,
      "type": "SCALAR",
      "max": [
        479
      ],
      "min": [
        0
      ]
    },
    {
      "bufferView": 5,
      "componentType": 5126,
      "count": 84,
      "type": "VEC3",
      "max": [
        0.5199999809265137,
        0.6370081305503845,
        0.8650000095367432
      ],
      "min": [
        -0.5199999809265137,
        0,
        -0.8650000095367432
      ]
    },
    {
      "bufferView": 6,
      "componentType": 5126,
      "count": 84,
      "type": "VEC3",
      "max": [
        0.9751144051551819,
        1,
        1
      ],
      "min": [
        -0.9751144051551819,
        -1,
        -1
      ]
    },
    {
      "bufferView": 7,
      "componentType": 5126,
      "count": 84,
      "type": "VEC4",
      "max": [
        1,
        0,
        0.9751144051551819,
        1
      ],
      "min": [
        -1,
        0,
        -0.9751144051551819,
        1
      ]
    },
    {
      "bufferView": 8,
      "componentType": 5126,
      "count": 84,
      "type": "VEC2",
      "max": [
        0.09375,
        0.7250000238418579
      ],
      "min": [
        0.09375,
        0.5249999761581421
      ]
    },
    {
      "bufferView": 9,
      "componentType": 5121,
      "count": 156,
      "type": "SCALAR",
      "max": [
        83
      ],
      "min": [
        0
      ]
    }
  ],
  "buffers": [
    {
      "uri": "coffin_data.bin",
      "byteLength": 29100
    }
  ],
  "bufferViews": [
    {
      "buffer": 0,
      "byteLength": 5760,
      "byteStride": 12,
      "target": 34962,
      "byteOffset": 0
    },
    {
      "buffer": 0,
      "byteOffset": 5760,
      "byteLength": 5760,
      "byteStride": 12,
      "target": 34962
    },
    {
      "buffer": 0,
      "byteOffset": 11520,
      "byteLength": 7680,
      "target": 34962
    },
    {
      "buffer": 0,
      "byteOffset": 19200,
      "byteLength": 3840,
      "target": 34962
    },
    {
      "buffer": 0,
      "byteOffset": 23040,
      "byteLength": 1872,
      "target": 34963
    },
    {
      "buffer": 0,
      "byteOffset": 24912,
      "byteLength": 1008,
      "byteStride": 12,
      "target": 34962
    },
    {
      "buffer": 0,
      "byteOffset": 25920,
      "byteLength": 1008,
      "byteStride": 12,
      "target": 34962
    },
    {
      "buffer": 0,
      "byteOffset": 26928,
      "byteLength": 1344,
      "target": 34962
    },
    {
      "buffer": 0,
      "byteOffset": 28272,
      "byteLength": 672,
      "target": 34962
    },
    {
      "buffer": 0,
      "byteOffset": 28944,
      "byteLength": 156,
      "target": 34963
    }
  ],
  "images": [
    {
      "uri": "Textures/colormap.png",
      "name": "colormap"
    }
  ],
  "materials": [
    {
      "pbrMetallicRoughness": {
        "baseColorTexture": {
          "index": 0,
          "extensions": {
            "KHR_texture_transform": {
              "texCoord": 0
            }
          }
        },
        "metallicFactor": 0
      },
      "doubleSided": true,
      "name": "colormap"
    }
  ],
  "meshes": [
    {
      "primitives": [
        {
          "attributes": {
            "POSITION": 0,
            "NORMAL": 1,
            "TANGENT": 2,
            "TEXCOORD_0": 3
          },
          "indices": 4,
          "material": 0
        }
      ],
      "name": "coffin"
    },
    {
      "primitives": [
        {
          "attributes": {
            "POSITION": 5,
            "NORMAL": 6,
            "TANGENT": 7,
            "TEXCOORD_0": 8
          },
          "indices": 9,
          "material": 0
        }
      ],
      "name": "lid"
    }
  ],
  "nodes": [
    {
      "children": [
        1
      ],
      "mesh": 0,
      "name": "coffin"
    },
    {
      "mesh": 1,
      "scale": [
        0.57,
        0.1083,
        0.578035
      ],
      "translation": [
        0,
        0.2052,
        -7.219114e-16
      ],
      "name": "lid"
    }
  ],
  "samplers": [
    {
      "magFilter": 9728,
      "minFilter": 9984
    }
  ],
  "textures": [
    {
      "sampler": 0,
      "source": 0,
      "name": "colormap"
    }
  ]
}