{
  "asset": {
    "generator": "UnityGLTF",
    "version": "2.0"
  },
  "extensionsUsed": [
    "KHR_texture_transform"
  ],
  "scene": 0,
  "scenes": [
    {
      "nodes": [
        0
      ],
      "name": "column-large"
    }
  ],
  "accessors": [
    {
      "bufferView": 0,
      "componentType": 5126,
      "count": 188,
      "type": "VEC3",
      "max": [
        0.1899999976158142,
        1.100000023841858,
        0.1899999976158142
      ],
      "min": [
        -0.1899999976158142,
        0,
        -0.1899999976158142
      ]
    },
    {
      "bufferView": 1,
      "componentType": 5126,
      "count": 188,
      "type": "VEC3",
      "max": [
        1,
        1,
        1
      ],
      "min": [
        -1,
        -1,
        -1
      ]
    },
    {
      "bufferView": 2,
      "componentType": 5126,
      "count": 188,
      "type": "VEC4",
      "max": [
        1,
        0.13503241539001465,
        1,
        1
      ],
      "min": [
        -1,
        -0.13503241539001465,
        -1,
        1
      ]
    },
    {
      "bufferView": 3,
      "componentType": 5126,
      "count": 188,
      "type": "VEC2",
      "max": [
        0.84375,
        0.9750000238418579
      ],
      "min": [
        0.09375,
        0.5249999761581421
      ]
    },
    {
      "bufferView": 4,
      "componentType": 5121,
      "count": 330,
      "type": "SCALAR",
      "max": [
        187
      ],
      "min": [
        0
      ]
    }
  ],
  "buffers": [
    {
      "uri": "column-large_data.bin",
      "byteLength": 9356
    }
  ],
  "bufferViews": [
    {
      "buffer": 0,
      "byteLength": 2256,
      "byteStride": 12,
      "target": 34962,
      "byteOffset": 0
    },
    {
      "buffer": 0,
      "byteOffset": 2256,
      "byteLength": 2256,
      "byteStride": 12,
      "target": 34962
    },
    {
      "buffer": 0,
      "byteOffset": 4512,
      "byteLength": 3008,
      "target": 34962
    },
    {
      "buffer": 0,
      "byteOffset": 7520,
      "byteLength": 1504,
      "target": 34962
    },
    {
      "buffer": 0,
      "byteOffset": 9024,
      "byteLength": 332,
      "target": 34963
    }
  ],
  "images": [
    {
      "uri": "Textures/colormap.png",
      "name": "colormap"
    }
  ],
  "materials": [
    {
      "pbrMetallicRoughness": {
        "baseColorTexture": {
          "index": 0,
          "extensions": {
            "KHR_texture_transform": {
              "texCoord": 0
            }
          }
        },
        "metallicFactor": 0
      },
      "doubleSided": true,
      "name": "colormap"
    }
  ],
  "meshes": [
    {
      "primitives": [
        {
          "attributes": {
            "POSITION": 0,
            "NORMAL": 1,
            "TANGENT": 2,
            "TEXCOORD_0": 3
          },
          "indices": 4,
          "material": 0
        }
      ],
      "name": "column-large"
    }
  ],
  "nodes": [
    {
      "mesh": 0,
      "name": "column-large"
    }
  ],
  "samplers": [
    {
      "magFilter": 9728,
      "minFilter": 9984
    }
  ],
  "textures": [
    {
      "sampler": 0,
      "source": 0,
      "name": "colormap"
    }
  ]
}