{
  "asset": {
    "generator": "UnityGLTF",
    "version": "2.0"
  },
  "extensionsUsed": [
    "KHR_texture_transform"
  ],
  "scene": 0,
  "scenes": [
    {
      "nodes": [
        0
      ],
      "name": "crypt-small-entrance-alternative"
    }
  ],
  "accessors": [
    {
      "bufferView": 0,
      "componentType": 5126,
      "count": 168,
      "type": "VEC3",
      "max": [
        0.3499999940395355,
        0.9499999284744263,
        0.10000000149011612
      ],
      "min": [
        -0.3499999940395355,
        0,
        -0.10000000149011612
      ]
    },
    {
      "bufferView": 1,
      "componentType": 5126,
      "count": 168,
      "type": "VEC3",
      "max": [
        1,
        1,
        1
      ],
      "min": [
        -1,
        -1,
        -1
      ]
    },
    {
      "bufferView": 2,
      "componentType": 5126,
      "count": 168,
      "type": "VEC4",
      "max": [
        1,
        0.3826834559440613,
        1,
        1
      ],
      "min": [
        -1,
        -0.3826834559440613,
        -1,
        1
      ]
    },
    {
      "bufferView": 3,
      "componentType": 5126,
      "count": 168,
      "type": "VEC2",
      "max": [
        0.84375,
        0.9750000238418579
      ],
      "min": [
        0.84375,
        0.7749999761581421
      ]
    },
    {
      "bufferView": 4,
      "componentType": 5121,
      "count": 324,
      "type": "SCALAR",
      "max": [
        167
      ],
      "min": [
        0
      ]
    }
  ],
  "buffers": [
    {
      "uri": "crypt-small-entrance-alternative_data.bin",
      "byteLength": 8388
    }
  ],
  "bufferViews": [
    {
      "buffer": 0,
      "byteLength": 2016,
      "byteStride": 12,
      "target": 34962,
      "byteOffset": 0
    },
    {
      "buffer": 0,
      "byteOffset": 2016,
      "byteLength": 2016,
      "byteStride": 12,
      "target": 34962
    },
    {
      "buffer": 0,
      "byteOffset": 4032,
      "byteLength": 2688,
      "target": 34962
    },
    {
      "buffer": 0,
      "byteOffset": 6720,
      "byteLength": 1344,
      "target": 34962
    },
    {
      "buffer": 0,
      "byteOffset": 8064,
      "byteLength": 324,
      "target": 34963
    }
  ],
  "images": [
    {
      "uri": "Textures/colormap.png",
      "name": "colormap"
    }
  ],
  "materials": [
    {
      "pbrMetallicRoughness": {
        "baseColorTexture": {
          "index": 0,
          "extensions": {
            "KHR_texture_transform": {
              "texCoord": 0
            }
          }
        },
        "metallicFactor": 0
      },
      "doubleSided": true,
      "name": "colormap"
    }
  ],
  "meshes": [
    {
      "primitives": [
        {
          "attributes": {
            "POSITION": 0,
            "NORMAL": 1,
            "TANGENT": 2,
            "TEXCOORD_0": 3
          },
          "indices": 4,
          "material": 0
        }
      ],
      "name": "crypt-small-entrance-alternative"
    }
  ],
  "nodes": [
    {
      "mesh": 0,
      "name": "crypt-small-entrance-alternative"
    }
  ],
  "samplers": [
    {
      "magFilter": 9728,
      "minFilter": 9984
    }
  ],
  "textures": [
    {
      "sampler": 0,
      "source": 0,
      "name": "colormap"
    }
  ]
}