{
  "asset": {
    "generator": "UnityGLTF",
    "version": "2.0"
  },
  "extensionsUsed": [
    "KHR_texture_transform"
  ],
  "scene": 0,
  "scenes": [
    {
      "nodes": [
        0
      ],
      "name": "crypt-large-roof"
    }
  ],
  "accessors": [
    {
      "bufferView": 0,
      "componentType": 5126,
      "count": 310,
      "type": "VEC3",
      "max": [
        0.550000011920929,
        0.4000000059604645,
        1.0499999523162842
      ],
      "min": [
        -0.550000011920929,
        0,
        -1.0499999523162842
      ]
    },
    {
      "bufferView": 1,
      "componentType": 5126,
      "count": 310,
      "type": "VEC3",
      "max": [
        0.9238795042037964,
        1,
        1
      ],
      "min": [
        -0.9238795042037964,
        -1,
        -1
      ]
    },
    {
      "bufferView": 2,
      "componentType": 5126,
      "count": 310,
      "type": "VEC4",
      "max": [
        1,
        0.6000000238418579,
        1,
        1
      ],
      "min": [
        -1,
        -0.6000000238418579,
        -1,
        1
      ]
    },
    {
      "bufferView": 3,
      "componentType": 5126,
      "count": 310,
      "type": "VEC2",
      "max": [
        0.84375,
        0.925000011920929
      ],
      "min": [
        0.09375,
        0.824999988079071
      ]
    },
    {
      "bufferView": 4,
      "componentType": 5123,
      "count": 588,
      "type": "SCALAR",
      "max": [
        309
      ],
      "min": [
        0
      ]
    }
  ],
  "buffers": [
    {
      "uri": "crypt-large-roof_data.bin",
      "byteLength": 16056
    }
  ],
  "bufferViews": [
    {
      "buffer": 0,
      "byteLength": 3720,
      "byteStride": 12,
      "target": 34962,
      "byteOffset": 0
    },
    {
      "buffer": 0,
      "byteOffset": 3720,
      "byteLength": 3720,
      "byteStride": 12,
      "target": 34962
    },
    {
      "buffer": 0,
      "byteOffset": 7440,
      "byteLength": 4960,
      "target": 34962
    },
    {
      "buffer": 0,
      "byteOffset": 12400,
      "byteLength": 2480,
      "target": 34962
    },
    {
      "buffer": 0,
      "byteOffset": 14880,
      "byteLength": 1176,
      "target": 34963
    }
  ],
  "images": [
    {
      "uri": "Textures/colormap.png",
      "name": "colormap"
    }
  ],
  "materials": [
    {
      "pbrMetallicRoughness": {
        "baseColorTexture": {
          "index": 0,
          "extensions": {
            "KHR_texture_transform": {
              "texCoord": 0
            }
          }
        },
        "metallicFactor": 0
      },
      "doubleSided": true,
      "name": "colormap"
    }
  ],
  "meshes": [
    {
      "primitives": [
        {
          "attributes": {
            "POSITION": 0,
            "NORMAL": 1,
            "TANGENT": 2,
            "TEXCOORD_0": 3
          },
          "indices": 4,
          "material": 0
        }
      ],
      "name": "crypt-large-roof"
    }
  ],
  "nodes": [
    {
      "mesh": 0,
      "name": "crypt-large-roof"
    }
  ],
  "samplers": [
    {
      "magFilter": 9728,
      "minFilter": 9984
    }
  ],
  "textures": [
    {
      "sampler": 0,
      "source": 0,
      "name": "colormap"
    }
  ]
}