{
  "asset": {
    "generator": "UnityGLTF",
    "version": "2.0"
  },
  "extensionsUsed": [
    "KHR_texture_transform"
  ],
  "scene": 0,
  "scenes": [
    {
      "nodes": [
        0
      ],
      "name": "crypt-small"
    }
  ],
  "accessors": [
    {
      "bufferView": 0,
      "componentType": 5126,
      "count": 417,
      "type": "VEC3",
      "max": [
        0.550000011920929,
        1,
        0.550000011920929
      ],
      "min": [
        -0.550000011920929,
        0,
        -0.550000011920929
      ]
    },
    {
      "bufferView": 1,
      "componentType": 5126,
      "count": 417,
      "type": "VEC3",
      "max": [
        1.0000001192092896,
        1,
        1.0000001192092896
      ],
      "min": [
        -1.0000001192092896,
        -1,
        -1.0000001192092896
      ]
    },
    {
      "bufferView": 2,
      "componentType": 5126,
      "count": 417,
      "type": "VEC4",
      "max": [
        1.0000001192092896,
        0.7071068286895752,
        1.0000001192092896,
        1
      ],
      "min": [
        -1.0000001192092896,
        -0.7071068286895752,
        -1.0000001192092896,
        1
      ]
    },
    {
      "bufferView": 3,
      "componentType": 5126,
      "count": 417,
      "type": "VEC2",
      "max": [
        0.96875,
        0.9750000238418579
      ],
      "min": [
        0.03125,
        0.7749999761581421
      ]
    },
    {
      "bufferView": 4,
      "componentType": 5123,
      "count": 780,
      "type": "SCALAR",
      "max": [
        416
      ],
      "min": [
        0
      ]
    }
  ],
  "buffers": [
    {
      "uri": "crypt-small_data.bin",
      "byteLength": 21576
    }
  ],
  "bufferViews": [
    {
      "buffer": 0,
      "byteLength": 5004,
      "byteStride": 12,
      "target": 34962,
      "byteOffset": 0
    },
    {
      "buffer": 0,
      "byteOffset": 5004,
      "byteLength": 5004,
      "byteStride": 12,
      "target": 34962
    },
    {
      "buffer": 0,
      "byteOffset": 10008,
      "byteLength": 6672,
      "target": 34962
    },
    {
      "buffer": 0,
      "byteOffset": 16680,
      "byteLength": 3336,
      "target": 34962
    },
    {
      "buffer": 0,
      "byteOffset": 20016,
      "byteLength": 1560,
      "target": 34963
    }
  ],
  "images": [
    {
      "uri": "Textures/colormap.png",
      "name": "colormap"
    }
  ],
  "materials": [
    {
      "pbrMetallicRoughness": {
        "baseColorTexture": {
          "index": 0,
          "extensions": {
            "KHR_texture_transform": {
              "texCoord": 0
            }
          }
        },
        "metallicFactor": 0
      },
      "doubleSided": true,
      "name": "colormap"
    }
  ],
  "meshes": [
    {
      "primitives": [
        {
          "attributes": {
            "POSITION": 0,
            "NORMAL": 1,
            "TANGENT": 2,
            "TEXCOORD_0": 3
          },
          "indices": 4,
          "material": 0
        }
      ],
      "name": "crypt-small"
    }
  ],
  "nodes": [
    {
      "mesh": 0,
      "name": "crypt-small"
    }
  ],
  "samplers": [
    {
      "magFilter": 9728,
      "minFilter": 9984
    }
  ],
  "textures": [
    {
      "sampler": 0,
      "source": 0,
      "name": "colormap"
    }
  ]
}