{
  "asset": {
    "generator": "UnityGLTF",
    "version": "2.0"
  },
  "extensionsUsed": [
    "KHR_texture_transform"
  ],
  "scene": 0,
  "scenes": [
    {
      "nodes": [
        0
      ],
      "name": "crypt-door"
    }
  ],
  "accessors": [
    {
      "bufferView": 0,
      "componentType": 5126,
      "count": 72,
      "type": "VEC3",
      "max": [
        0.4000000059604645,
        0.800000011920929,
        0.05000000074505806
      ],
      "min": [
        0,
        0,
        -0.05000000074505806
      ]
    },
    {
      "bufferView": 1,
      "componentType": 5126,
      "count": 72,
      "type": "VEC3",
      "max": [
        1,
        1,
        1
      ],
      "min": [
        -1,
        -1,
        -1
      ]
    },
    {
      "bufferView": 2,
      "componentType": 5126,
      "count": 72,
      "type": "VEC4",
      "max": [
        1,
        0,
        1,
        1
      ],
      "min": [
        -1,
        0,
        -1,
        1
      ]
    },
    {
      "bufferView": 3,
      "componentType": 5126,
      "count": 72,
      "type": "VEC2",
      "max": [
        0.84375,
        0.9750000238418579
      ],
      "min": [
        0.09375,
        0.7749999761581421
      ]
    },
    {
      "bufferView": 4,
      "componentType": 5121,
      "count": 132,
      "type": "SCALAR",
      "max": [
        71
      ],
      "min": [
        0
      ]
    },
    {
      "bufferView": 5,
      "componentType": 5126,
      "count": 30,
      "type": "SCALAR",
      "max": [
        1
      ],
      "min": [
        0
      ]
    },
    {
      "bufferView": 6,
      "componentType": 5126,
      "count": 30,
      "type": "VEC4",
      "max": [
        0,
        0.8189970254898071,
        0,
        -0.5737978219985962
      ],
      "min": [
        0,
        1.9377047309211535e-16,
        0,
        -1
      ]
    },
    {
      "bufferView": 7,
      "componentType": 5126,
      "count": 30,
      "type": "SCALAR",
      "max": [
        1
      ],
      "min": [
        0
      ]
    },
    {
      "bufferView": 8,
      "componentType": 5126,
      "count": 30,
      "type": "VEC4",
      "max": [
        0,
        0.7660444378852844,
        0,
        -0.6427876353263855
      ],
      "min": [
        0,
        0,
        0,
        -1
      ]
    },
    {
      "bufferView": 9,
      "componentType": 5126,
      "count": 60,
      "type": "SCALAR",
      "max": [
        2
      ],
      "min": [
        0
      ]
    },
    {
      "bufferView": 10,
      "componentType": 5126,
      "count": 60,
      "type": "VEC4",
      "max": [
        0,
        0.8188273906707764,
        0,
        -0.5740398168563843
      ],
      "min": [
        0,
        0,
        0,
        -1
      ]
    }
  ],
  "animations": [
    {
      "channels": [
        {
          "sampler": 0,
          "target": {
            "node": 1,
            "path": "rotation"
          }
        }
      ],
      "samplers": [
        {
          "input": 5,
          "interpolation": "LINEAR",
          "output": 6
        }
      ],
      "name": "open"
    },
    {
      "channels": [
        {
          "sampler": 0,
          "target": {
            "node": 1,
            "path": "rotation"
          }
        }
      ],
      "samplers": [
        {
          "input": 7,
          "interpolation": "LINEAR",
          "output": 8
        }
      ],
      "name": "close"
    },
    {
      "channels": [
        {
          "sampler": 0,
          "target": {
            "node": 1,
            "path": "rotation"
          }
        }
      ],
      "samplers": [
        {
          "input": 9,
          "interpolation": "LINEAR",
          "output": 10
        }
      ],
      "name": "open-and-close"
    }
  ],
  "buffers": [
    {
      "uri": "crypt-door_data.bin",
      "byteLength": 5988
    }
  ],
  "bufferViews": [
    {
      "buffer": 0,
      "byteLength": 864,
      "byteStride": 12,
      "target": 34962,
      "byteOffset": 0
    },
    {
      "buffer": 0,
      "byteOffset": 864,
      "byteLength": 864,
      "byteStride": 12,
      "target": 34962
    },
    {
      "buffer": 0,
      "byteOffset": 1728,
      "byteLength": 1152,
      "target": 34962
    },
    {
      "buffer": 0,
      "byteOffset": 2880,
      "byteLength": 576,
      "target": 34962
    },
    {
      "buffer": 0,
      "byteOffset": 3456,
      "byteLength": 132,
      "target": 34963
    },
    {
      "buffer": 0,
      "byteOffset": 3588,
      "byteLength": 120
    },
    {
      "buffer": 0,
      "byteOffset": 3708,
      "byteLength": 480
    },
    {
      "buffer": 0,
      "byteOffset": 4188,
      "byteLength": 120
    },
    {
      "buffer": 0,
      "byteOffset": 4308,
      "byteLength": 480
    },
    {
      "buffer": 0,
      "byteOffset": 4788,
      "byteLength": 240
    },
    {
      "buffer": 0,
      "byteOffset": 5028,
      "byteLength": 960
    }
  ],
  "images": [
    {
      "uri": "Textures/colormap.png",
      "name": "colormap"
    }
  ],
  "materials": [
    {
      "pbrMetallicRoughness": {
        "baseColorTexture": {
          "index": 0,
          "extensions": {
            "KHR_texture_transform": {
              "texCoord": 0
            }
          }
        },
        "metallicFactor": 0
      },
      "doubleSided": true,
      "name": "colormap"
    }
  ],
  "meshes": [
    {
      "primitives": [
        {
          "attributes": {
            "POSITION": 0,
            "NORMAL": 1,
            "TANGENT": 2,
            "TEXCOORD_0": 3
          },
          "indices": 4,
          "material": 0
        }
      ],
      "name": "door"
    }
  ],
  "nodes": [
    {
      "children": [
        1
      ],
      "name": "crypt-door"
    },
    {
      "mesh": 0,
      "name": "door"
    }
  ],
  "samplers": [
    {
      "magFilter": 9728,
      "minFilter": 9984
    }
  ],
  "textures": [
    {
      "sampler": 0,
      "source": 0,
      "name": "colormap"
    }
  ]
}