{
  "asset": {
    "generator": "UnityGLTF",
    "version": "2.0"
  },
  "extensionsUsed": [
    "KHR_texture_transform"
  ],
  "scene": 0,
  "scenes": [
    {
      "nodes": [
        0
      ],
      "name": "debris"
    }
  ],
  "accessors": [
    {
      "bufferView": 0,
      "componentType": 5126,
      "count": 184,
      "type": "VEC3",
      "max": [
        0.21823039650917053,
        0.1599999964237213,
        0.23654919862747192
      ],
      "min": [
        -0.21823039650917053,
        0,
        -0.23654919862747192
      ]
    },
    {
      "bufferView": 1,
      "componentType": 5126,
      "count": 184,
      "type": "VEC3",
      "max": [
        0.9918944239616394,
        1,
        0.9918946623802185
      ],
      "min": [
        -0.9918944239616394,
        -1,
        -0.9918946623802185
      ]
    },
    {
      "bufferView": 2,
      "componentType": 5126,
      "count": 184,
      "type": "VEC4",
      "max": [
        1,
        0,
        0.9918944239616394,
        1
      ],
      "min": [
        -1,
        0,
        -0.9918944239616394,
        1
      ]
    },
    {
      "bufferView": 3,
      "componentType": 5126,
      "count": 184,
      "type": "VEC2",
      "max": [
        0.84375,
        0.9750000238418579
      ],
      "min": [
        0.84375,
        0.7749999761581421
      ]
    },
    {
      "bufferView": 4,
      "componentType": 5121,
      "count": 336,
      "type": "SCALAR",
      "max": [
        183
      ],
      "min": [
        0
      ]
    }
  ],
  "buffers": [
    {
      "uri": "debris_data.bin",
      "byteLength": 9168
    }
  ],
  "bufferViews": [
    {
      "buffer": 0,
      "byteLength": 2208,
      "byteStride": 12,
      "target": 34962,
      "byteOffset": 0
    },
    {
      "buffer": 0,
      "byteOffset": 2208,
      "byteLength": 2208,
      "byteStride": 12,
      "target": 34962
    },
    {
      "buffer": 0,
      "byteOffset": 4416,
      "byteLength": 2944,
      "target": 34962
    },
    {
      "buffer": 0,
      "byteOffset": 7360,
      "byteLength": 1472,
      "target": 34962
    },
    {
      "buffer": 0,
      "byteOffset": 8832,
      "byteLength": 336,
      "target": 34963
    }
  ],
  "images": [
    {
      "uri": "Textures/colormap.png",
      "name": "colormap"
    }
  ],
  "materials": [
    {
      "pbrMetallicRoughness": {
        "baseColorTexture": {
          "index": 0,
          "extensions": {
            "KHR_texture_transform": {
              "texCoord": 0
            }
          }
        },
        "metallicFactor": 0
      },
      "doubleSided": true,
      "name": "colormap"
    }
  ],
  "meshes": [
    {
      "primitives": [
        {
          "attributes": {
            "POSITION": 0,
            "NORMAL": 1,
            "TANGENT": 2,
            "TEXCOORD_0": 3
          },
          "indices": 4,
          "material": 0
        }
      ],
      "name": "debris"
    }
  ],
  "nodes": [
    {
      "mesh": 0,
      "name": "debris"
    }
  ],
  "samplers": [
    {
      "magFilter": 9728,
      "minFilter": 9984
    }
  ],
  "textures": [
    {
      "sampler": 0,
      "source": 0,
      "name": "colormap"
    }
  ]
}