{
  "asset": {
    "generator": "UnityGLTF",
    "version": "2.0"
  },
  "extensionsUsed": [
    "KHR_texture_transform"
  ],
  "scene": 0,
  "scenes": [
    {
      "nodes": [
        0
      ],
      "name": "detail-chalice"
    }
  ],
  "accessors": [
    {
      "bufferView": 0,
      "componentType": 5126,
      "count": 624,
      "type": "VEC3",
      "max": [
        0.04838839918375015,
        0.19947201013565063,
        0.04838839918375015
      ],
      "min": [
        -0.04838839918375015,
        0,
        -0.04838839918375015
      ]
    },
    {
      "bufferView": 1,
      "componentType": 5126,
      "count": 624,
      "type": "VEC3",
      "max": [
        1,
        1,
        1
      ],
      "min": [
        -1,
        -1,
        -1
      ]
    },
    {
      "bufferView": 2,
      "componentType": 5126,
      "count": 624,
      "type": "VEC4",
      "max": [
        1,
        0.03786511346697807,
        1,
        1
      ],
      "min": [
        -1,
        -0.037865154445171356,
        -1,
        1
      ]
    },
    {
      "bufferView": 3,
      "componentType": 5126,
      "count": 624,
      "type": "VEC2",
      "max": [
        0.21875,
        0.9750000238418579
      ],
      "min": [
        0.21875,
        0.7749999761581421
      ]
    },
    {
      "bufferView": 4,
      "componentType": 5123,
      "count": 1128,
      "type": "SCALAR",
      "max": [
        623
      ],
      "min": [
        0
      ]
    }
  ],
  "buffers": [
    {
      "uri": "detail-chalice_data.bin",
      "byteLength": 32208
    }
  ],
  "bufferViews": [
    {
      "buffer": 0,
      "byteLength": 7488,
      "byteStride": 12,
      "target": 34962,
      "byteOffset": 0
    },
    {
      "buffer": 0,
      "byteOffset": 7488,
      "byteLength": 7488,
      "byteStride": 12,
      "target": 34962
    },
    {
      "buffer": 0,
      "byteOffset": 14976,
      "byteLength": 9984,
      "target": 34962
    },
    {
      "buffer": 0,
      "byteOffset": 24960,
      "byteLength": 4992,
      "target": 34962
    },
    {
      "buffer": 0,
      "byteOffset": 29952,
      "byteLength": 2256,
      "target": 34963
    }
  ],
  "images": [
    {
      "uri": "Textures/colormap.png",
      "name": "colormap"
    }
  ],
  "materials": [
    {
      "pbrMetallicRoughness": {
        "baseColorTexture": {
          "index": 0,
          "extensions": {
            "KHR_texture_transform": {
              "texCoord": 0
            }
          }
        },
        "metallicFactor": 0
      },
      "doubleSided": true,
      "name": "colormap"
    }
  ],
  "meshes": [
    {
      "primitives": [
        {
          "attributes": {
            "POSITION": 0,
            "NORMAL": 1,
            "TANGENT": 2,
            "TEXCOORD_0": 3
          },
          "indices": 4,
          "material": 0
        }
      ],
      "name": "detail-chalice"
    }
  ],
  "nodes": [
    {
      "mesh": 0,
      "name": "detail-chalice"
    }
  ],
  "samplers": [
    {
      "magFilter": 9728,
      "minFilter": 9984
    }
  ],
  "textures": [
    {
      "sampler": 0,
      "source": 0,
      "name": "colormap"
    }
  ]
}