{
  "asset": {
    "generator": "UnityGLTF",
    "version": "2.0"
  },
  "extensionsUsed": [
    "KHR_texture_transform"
  ],
  "scene": 0,
  "scenes": [
    {
      "nodes": [
        0
      ],
      "name": "grave"
    }
  ],
  "accessors": [
    {
      "bufferView": 0,
      "componentType": 5126,
      "count": 391,
      "type": "VEC3",
      "max": [
        0.2865700125694275,
        0.09521999955177307,
        0.5659999847412109
      ],
      "min": [
        -0.2865700125694275,
        0,
        -0.5659999847412109
      ]
    },
    {
      "bufferView": 1,
      "componentType": 5126,
      "count": 391,
      "type": "VEC3",
      "max": [
        0.8979894518852234,
        1,
        0.8507674336433411
      ],
      "min": [
        -0.8979900479316711,
        -1,
        -0.8507674336433411
      ]
    },
    {
      "bufferView": 2,
      "componentType": 5126,
      "count": 391,
      "type": "VEC4",
      "max": [
        1,
        0.26981598138809204,
        1,
        1
      ],
      "min": [
        -1,
        -0.26981469988822937,
        -1,
        -1
      ]
    },
    {
      "bufferView": 3,
      "componentType": 5126,
      "count": 391,
      "type": "VEC2",
      "max": [
        0.09375,
        0.7250000238418579
      ],
      "min": [
        0.09375,
        0.5249999761581421
      ]
    },
    {
      "bufferView": 4,
      "componentType": 5123,
      "count": 681,
      "type": "SCALAR",
      "max": [
        390
      ],
      "min": [
        0
      ]
    }
  ],
  "buffers": [
    {
      "uri": "grave_data.bin",
      "byteLength": 20132
    }
  ],
  "bufferViews": [
    {
      "buffer": 0,
      "byteLength": 4692,
      "byteStride": 12,
      "target": 34962,
      "byteOffset": 0
    },
    {
      "buffer": 0,
      "byteOffset": 4692,
      "byteLength": 4692,
      "byteStride": 12,
      "target": 34962
    },
    {
      "buffer": 0,
      "byteOffset": 9384,
      "byteLength": 6256,
      "target": 34962
    },
    {
      "buffer": 0,
      "byteOffset": 15640,
      "byteLength": 3128,
      "target": 34962
    },
    {
      "buffer": 0,
      "byteOffset": 18768,
      "byteLength": 1364,
      "target": 34963
    }
  ],
  "images": [
    {
      "uri": "Textures/colormap.png",
      "name": "colormap"
    }
  ],
  "materials": [
    {
      "pbrMetallicRoughness": {
        "baseColorTexture": {
          "index": 0,
          "extensions": {
            "KHR_texture_transform": {
              "texCoord": 0
            }
          }
        },
        "metallicFactor": 0
      },
      "doubleSided": true,
      "name": "colormap"
    }
  ],
  "meshes": [
    {
      "primitives": [
        {
          "attributes": {
            "POSITION": 0,
            "NORMAL": 1,
            "TANGENT": 2,
            "TEXCOORD_0": 3
          },
          "indices": 4,
          "material": 0
        }
      ],
      "name": "grave"
    }
  ],
  "nodes": [
    {
      "mesh": 0,
      "name": "grave"
    }
  ],
  "samplers": [
    {
      "magFilter": 9728,
      "minFilter": 9984
    }
  ],
  "textures": [
    {
      "sampler": 0,
      "source": 0,
      "name": "colormap"
    }
  ]
}