{
  "asset": {
    "generator": "UnityGLTF",
    "version": "2.0"
  },
  "extensionsUsed": [
    "KHR_texture_transform"
  ],
  "scene": 0,
  "scenes": [
    {
      "nodes": [
        0
      ],
      "name": "gravestone-cross-large"
    }
  ],
  "accessors": [
    {
      "bufferView": 0,
      "componentType": 5126,
      "count": 554,
      "type": "VEC3",
      "max": [
        0.220769003033638,
        0.9383259415626526,
        0.14563199877738953
      ],
      "min": [
        -0.220769003033638,
        0,
        -0.14563199877738953
      ]
    },
    {
      "bufferView": 1,
      "componentType": 5126,
      "count": 554,
      "type": "VEC3",
      "max": [
        1,
        1,
        1
      ],
      "min": [
        -1,
        -1,
        -1
      ]
    },
    {
      "bufferView": 2,
      "componentType": 5126,
      "count": 554,
      "type": "VEC4",
      "max": [
        1,
        0,
        1,
        1
      ],
      "min": [
        -1,
        0,
        -1,
        1
      ]
    },
    {
      "bufferView": 3,
      "componentType": 5126,
      "count": 554,
      "type": "VEC2",
      "max": [
        0.84375,
        0.9750000238418579
      ],
      "min": [
        0.84375,
        0.7749999761581421
      ]
    },
    {
      "bufferView": 4,
      "componentType": 5123,
      "count": 1122,
      "type": "SCALAR",
      "max": [
        553
      ],
      "min": [
        0
      ]
    }
  ],
  "buffers": [
    {
      "uri": "gravestone-cross-large_data.bin",
      "byteLength": 28836
    }
  ],
  "bufferViews": [
    {
      "buffer": 0,
      "byteLength": 6648,
      "byteStride": 12,
      "target": 34962,
      "byteOffset": 0
    },
    {
      "buffer": 0,
      "byteOffset": 6648,
      "byteLength": 6648,
      "byteStride": 12,
      "target": 34962
    },
    {
      "buffer": 0,
      "byteOffset": 13296,
      "byteLength": 8864,
      "target": 34962
    },
    {
      "buffer": 0,
      "byteOffset": 22160,
      "byteLength": 4432,
      "target": 34962
    },
    {
      "buffer": 0,
      "byteOffset": 26592,
      "byteLength": 2244,
      "target": 34963
    }
  ],
  "images": [
    {
      "uri": "Textures/colormap.png",
      "name": "colormap"
    }
  ],
  "materials": [
    {
      "pbrMetallicRoughness": {
        "baseColorTexture": {
          "index": 0,
          "extensions": {
            "KHR_texture_transform": {
              "texCoord": 0
            }
          }
        },
        "metallicFactor": 0
      },
      "doubleSided": true,
      "name": "colormap"
    }
  ],
  "meshes": [
    {
      "primitives": [
        {
          "attributes": {
            "POSITION": 0,
            "NORMAL": 1,
            "TANGENT": 2,
            "TEXCOORD_0": 3
          },
          "indices": 4,
          "material": 0
        }
      ],
      "name": "gravestone-cross-large"
    }
  ],
  "nodes": [
    {
      "mesh": 0,
      "name": "gravestone-cross-large"
    }
  ],
  "samplers": [
    {
      "magFilter": 9728,
      "minFilter": 9984
    }
  ],
  "textures": [
    {
      "sampler": 0,
      "source": 0,
      "name": "colormap"
    }
  ]
}