{
  "asset": {
    "generator": "UnityGLTF",
    "version": "2.0"
  },
  "extensionsUsed": [
    "KHR_texture_transform"
  ],
  "scene": 0,
  "scenes": [
    {
      "nodes": [
        0
      ],
      "name": "gravestone-roof"
    }
  ],
  "accessors": [
    {
      "bufferView": 0,
      "componentType": 5126,
      "count": 126,
      "type": "VEC3",
      "max": [
        0.19500000774860382,
        0.5849999785423279,
        0.09974999725818634
      ],
      "min": [
        -0.19500000774860382,
        0,
        -0.09974999725818634
      ]
    },
    {
      "bufferView": 1,
      "componentType": 5126,
      "count": 126,
      "type": "VEC3",
      "max": [
        1,
        0.9662349224090576,
        1
      ],
      "min": [
        -1,
        -1,
        -1
      ]
    },
    {
      "bufferView": 2,
      "componentType": 5126,
      "count": 126,
      "type": "VEC4",
      "max": [
        1,
        0,
        1,
        1
      ],
      "min": [
        -1,
        0,
        -1,
        1
      ]
    },
    {
      "bufferView": 3,
      "componentType": 5126,
      "count": 126,
      "type": "VEC2",
      "max": [
        0.84375,
        0.9750000238418579
      ],
      "min": [
        0.84375,
        0.7749999761581421
      ]
    },
    {
      "bufferView": 4,
      "componentType": 5121,
      "count": 216,
      "type": "SCALAR",
      "max": [
        125
      ],
      "min": [
        0
      ]
    }
  ],
  "buffers": [
    {
      "uri": "gravestone-roof_data.bin",
      "byteLength": 6264
    }
  ],
  "bufferViews": [
    {
      "buffer": 0,
      "byteLength": 1512,
      "byteStride": 12,
      "target": 34962,
      "byteOffset": 0
    },
    {
      "buffer": 0,
      "byteOffset": 1512,
      "byteLength": 1512,
      "byteStride": 12,
      "target": 34962
    },
    {
      "buffer": 0,
      "byteOffset": 3024,
      "byteLength": 2016,
      "target": 34962
    },
    {
      "buffer": 0,
      "byteOffset": 5040,
      "byteLength": 1008,
      "target": 34962
    },
    {
      "buffer": 0,
      "byteOffset": 6048,
      "byteLength": 216,
      "target": 34963
    }
  ],
  "images": [
    {
      "uri": "Textures/colormap.png",
      "name": "colormap"
    }
  ],
  "materials": [
    {
      "pbrMetallicRoughness": {
        "baseColorTexture": {
          "index": 0,
          "extensions": {
            "KHR_texture_transform": {
              "texCoord": 0
            }
          }
        },
        "metallicFactor": 0
      },
      "doubleSided": true,
      "name": "colormap"
    }
  ],
  "meshes": [
    {
      "primitives": [
        {
          "attributes": {
            "POSITION": 0,
            "NORMAL": 1,
            "TANGENT": 2,
            "TEXCOORD_0": 3
          },
          "indices": 4,
          "material": 0
        }
      ],
      "name": "gravestone-roof"
    }
  ],
  "nodes": [
    {
      "mesh": 0,
      "name": "gravestone-roof"
    }
  ],
  "samplers": [
    {
      "magFilter": 9728,
      "minFilter": 9984
    }
  ],
  "textures": [
    {
      "sampler": 0,
      "source": 0,
      "name": "colormap"
    }
  ]
}