{
  "asset": {
    "generator": "UnityGLTF",
    "version": "2.0"
  },
  "extensionsUsed": [
    "KHR_texture_transform"
  ],
  "scene": 0,
  "scenes": [
    {
      "nodes": [
        0
      ],
      "name": "gravestone-decorative"
    }
  ],
  "accessors": [
    {
      "bufferView": 0,
      "componentType": 5126,
      "count": 118,
      "type": "VEC3",
      "max": [
        0.19500000774860382,
        0.5849999785423279,
        0.07474999874830246
      ],
      "min": [
        -0.19500000774860382,
        0,
        -0.07474999874830246
      ]
    },
    {
      "bufferView": 1,
      "componentType": 5126,
      "count": 118,
      "type": "VEC3",
      "max": [
        1,
        1,
        1
      ],
      "min": [
        -1,
        -1,
        -1
      ]
    },
    {
      "bufferView": 2,
      "componentType": 5126,
      "count": 118,
      "type": "VEC4",
      "max": [
        1,
        0,
        1,
        1
      ],
      "min": [
        -1,
        0,
        -1,
        1
      ]
    },
    {
      "bufferView": 3,
      "componentType": 5126,
      "count": 118,
      "type": "VEC2",
      "max": [
        0.84375,
        0.9750000238418579
      ],
      "min": [
        0.84375,
        0.7749999761581421
      ]
    },
    {
      "bufferView": 4,
      "componentType": 5121,
      "count": 192,
      "type": "SCALAR",
      "max": [
        117
      ],
      "min": [
        0
      ]
    }
  ],
  "buffers": [
    {
      "uri": "gravestone-decorative_data.bin",
      "byteLength": 5856
    }
  ],
  "bufferViews": [
    {
      "buffer": 0,
      "byteLength": 1416,
      "byteStride": 12,
      "target": 34962,
      "byteOffset": 0
    },
    {
      "buffer": 0,
      "byteOffset": 1416,
      "byteLength": 1416,
      "byteStride": 12,
      "target": 34962
    },
    {
      "buffer": 0,
      "byteOffset": 2832,
      "byteLength": 1888,
      "target": 34962
    },
    {
      "buffer": 0,
      "byteOffset": 4720,
      "byteLength": 944,
      "target": 34962
    },
    {
      "buffer": 0,
      "byteOffset": 5664,
      "byteLength": 192,
      "target": 34963
    }
  ],
  "images": [
    {
      "uri": "Textures/colormap.png",
      "name": "colormap"
    }
  ],
  "materials": [
    {
      "pbrMetallicRoughness": {
        "baseColorTexture": {
          "index": 0,
          "extensions": {
            "KHR_texture_transform": {
              "texCoord": 0
            }
          }
        },
        "metallicFactor": 0
      },
      "doubleSided": true,
      "name": "colormap"
    }
  ],
  "meshes": [
    {
      "primitives": [
        {
          "attributes": {
            "POSITION": 0,
            "NORMAL": 1,
            "TANGENT": 2,
            "TEXCOORD_0": 3
          },
          "indices": 4,
          "material": 0
        }
      ],
      "name": "gravestone-decorative"
    }
  ],
  "nodes": [
    {
      "mesh": 0,
      "name": "gravestone-decorative"
    }
  ],
  "samplers": [
    {
      "magFilter": 9728,
      "minFilter": 9984
    }
  ],
  "textures": [
    {
      "sampler": 0,
      "source": 0,
      "name": "colormap"
    }
  ]
}