{
  "asset": {
    "generator": "UnityGLTF",
    "version": "2.0"
  },
  "extensionsUsed": [
    "KHR_texture_transform"
  ],
  "scene": 0,
  "scenes": [
    {
      "nodes": [
        0
      ],
      "name": "gravestone-cross"
    }
  ],
  "accessors": [
    {
      "bufferView": 0,
      "componentType": 5126,
      "count": 276,
      "type": "VEC3",
      "max": [
        0.220769003033638,
        0.954344630241394,
        0.14563199877738953
      ],
      "min": [
        -0.220769003033638,
        0,
        -0.14563199877738953
      ]
    },
    {
      "bufferView": 1,
      "componentType": 5126,
      "count": 276,
      "type": "VEC3",
      "max": [
        1,
        1,
        1
      ],
      "min": [
        -1,
        -1,
        -1
      ]
    },
    {
      "bufferView": 2,
      "componentType": 5126,
      "count": 276,
      "type": "VEC4",
      "max": [
        1,
        0.2443121373653412,
        1,
        1
      ],
      "min": [
        -1,
        -0.25559189915657043,
        -1,
        1
      ]
    },
    {
      "bufferView": 3,
      "componentType": 5126,
      "count": 276,
      "type": "VEC2",
      "max": [
        0.84375,
        0.9750000238418579
      ],
      "min": [
        0.09375,
        0.7749999761581421
      ]
    },
    {
      "bufferView": 4,
      "componentType": 5123,
      "count": 540,
      "type": "SCALAR",
      "max": [
        275
      ],
      "min": [
        0
      ]
    }
  ],
  "buffers": [
    {
      "uri": "gravestone-cross_data.bin",
      "byteLength": 14328
    }
  ],
  "bufferViews": [
    {
      "buffer": 0,
      "byteLength": 3312,
      "byteStride": 12,
      "target": 34962,
      "byteOffset": 0
    },
    {
      "buffer": 0,
      "byteOffset": 3312,
      "byteLength": 3312,
      "byteStride": 12,
      "target": 34962
    },
    {
      "buffer": 0,
      "byteOffset": 6624,
      "byteLength": 4416,
      "target": 34962
    },
    {
      "buffer": 0,
      "byteOffset": 11040,
      "byteLength": 2208,
      "target": 34962
    },
    {
      "buffer": 0,
      "byteOffset": 13248,
      "byteLength": 1080,
      "target": 34963
    }
  ],
  "images": [
    {
      "uri": "Textures/colormap.png",
      "name": "colormap"
    }
  ],
  "materials": [
    {
      "pbrMetallicRoughness": {
        "baseColorTexture": {
          "index": 0,
          "extensions": {
            "KHR_texture_transform": {
              "texCoord": 0
            }
          }
        },
        "metallicFactor": 0
      },
      "doubleSided": true,
      "name": "colormap"
    }
  ],
  "meshes": [
    {
      "primitives": [
        {
          "attributes": {
            "POSITION": 0,
            "NORMAL": 1,
            "TANGENT": 2,
            "TEXCOORD_0": 3
          },
          "indices": 4,
          "material": 0
        }
      ],
      "name": "gravestone-cross"
    }
  ],
  "nodes": [
    {
      "mesh": 0,
      "name": "gravestone-cross"
    }
  ],
  "samplers": [
    {
      "magFilter": 9728,
      "minFilter": 9984
    }
  ],
  "textures": [
    {
      "sampler": 0,
      "source": 0,
      "name": "colormap"
    }
  ]
}