{
  "asset": {
    "generator": "UnityGLTF",
    "version": "2.0"
  },
  "extensionsUsed": [
    "KHR_texture_transform"
  ],
  "scene": 0,
  "scenes": [
    {
      "nodes": [
        0
      ],
      "name": "hay-bale"
    }
  ],
  "accessors": [
    {
      "bufferView": 0,
      "componentType": 5126,
      "count": 104,
      "type": "VEC3",
      "max": [
        0.3499999940395355,
        0.3499999940395355,
        0.25
      ],
      "min": [
        -0.3499999940395355,
        0,
        -0.25
      ]
    },
    {
      "bufferView": 1,
      "componentType": 5126,
      "count": 104,
      "type": "VEC3",
      "max": [
        0.9054100513458252,
        0.9054100513458252,
        0.9054100513458252
      ],
      "min": [
        -0.9054100513458252,
        -1,
        -0.9054100513458252
      ]
    },
    {
      "bufferView": 2,
      "componentType": 5126,
      "count": 104,
      "type": "VEC4",
      "max": [
        1,
        0.3651484251022339,
        0.9538781642913818,
        1
      ],
      "min": [
        -0.9538781642913818,
        -0.3651483952999115,
        -0.9538781642913818,
        1
      ]
    },
    {
      "bufferView": 3,
      "componentType": 5126,
      "count": 104,
      "type": "VEC2",
      "max": [
        0.34375,
        0.7250000238418579
      ],
      "min": [
        0.34375,
        0.5249999761581421
      ]
    },
    {
      "bufferView": 4,
      "componentType": 5121,
      "count": 156,
      "type": "SCALAR",
      "max": [
        103
      ],
      "min": [
        0
      ]
    }
  ],
  "buffers": [
    {
      "uri": "hay-bale_data.bin",
      "byteLength": 5148
    }
  ],
  "bufferViews": [
    {
      "buffer": 0,
      "byteLength": 1248,
      "byteStride": 12,
      "target": 34962,
      "byteOffset": 0
    },
    {
      "buffer": 0,
      "byteOffset": 1248,
      "byteLength": 1248,
      "byteStride": 12,
      "target": 34962
    },
    {
      "buffer": 0,
      "byteOffset": 2496,
      "byteLength": 1664,
      "target": 34962
    },
    {
      "buffer": 0,
      "byteOffset": 4160,
      "byteLength": 832,
      "target": 34962
    },
    {
      "buffer": 0,
      "byteOffset": 4992,
      "byteLength": 156,
      "target": 34963
    }
  ],
  "images": [
    {
      "uri": "Textures/colormap.png",
      "name": "colormap"
    }
  ],
  "materials": [
    {
      "pbrMetallicRoughness": {
        "baseColorTexture": {
          "index": 0,
          "extensions": {
            "KHR_texture_transform": {
              "texCoord": 0
            }
          }
        },
        "metallicFactor": 0
      },
      "doubleSided": true,
      "name": "colormap"
    }
  ],
  "meshes": [
    {
      "primitives": [
        {
          "attributes": {
            "POSITION": 0,
            "NORMAL": 1,
            "TANGENT": 2,
            "TEXCOORD_0": 3
          },
          "indices": 4,
          "material": 0
        }
      ],
      "name": "hay-bale"
    }
  ],
  "nodes": [
    {
      "mesh": 0,
      "name": "hay-bale"
    }
  ],
  "samplers": [
    {
      "magFilter": 9728,
      "minFilter": 9984
    }
  ],
  "textures": [
    {
      "sampler": 0,
      "source": 0,
      "name": "colormap"
    }
  ]
}