{
  "asset": {
    "generator": "UnityGLTF",
    "version": "2.0"
  },
  "extensionsUsed": [
    "KHR_texture_transform"
  ],
  "scene": 0,
  "scenes": [
    {
      "nodes": [
        0
      ],
      "name": "iron-fence-border"
    }
  ],
  "accessors": [
    {
      "bufferView": 0,
      "componentType": 5126,
      "count": 468,
      "type": "VEC3",
      "max": [
        0.5,
        0.8238999843597412,
        -0.3999999761581421
      ],
      "min": [
        -0.5,
        0,
        -0.5
      ]
    },
    {
      "bufferView": 1,
      "componentType": 5126,
      "count": 468,
      "type": "VEC3",
      "max": [
        1,
        1,
        1
      ],
      "min": [
        -1,
        -1,
        -1
      ]
    },
    {
      "bufferView": 2,
      "componentType": 5126,
      "count": 468,
      "type": "VEC4",
      "max": [
        1,
        0,
        1,
        1
      ],
      "min": [
        -1,
        0,
        -1,
        1
      ]
    },
    {
      "bufferView": 3,
      "componentType": 5126,
      "count": 468,
      "type": "VEC2",
      "max": [
        0.84375,
        0.9750000238418579
      ],
      "min": [
        0.53125,
        0.5517022609710693
      ]
    },
    {
      "bufferView": 4,
      "componentType": 5123,
      "count": 660,
      "type": "SCALAR",
      "max": [
        467
      ],
      "min": [
        0
      ]
    }
  ],
  "buffers": [
    {
      "uri": "iron-fence-border_data.bin",
      "byteLength": 23784
    }
  ],
  "bufferViews": [
    {
      "buffer": 0,
      "byteLength": 5616,
      "byteStride": 12,
      "target": 34962,
      "byteOffset": 0
    },
    {
      "buffer": 0,
      "byteOffset": 5616,
      "byteLength": 5616,
      "byteStride": 12,
      "target": 34962
    },
    {
      "buffer": 0,
      "byteOffset": 11232,
      "byteLength": 7488,
      "target": 34962
    },
    {
      "buffer": 0,
      "byteOffset": 18720,
      "byteLength": 3744,
      "target": 34962
    },
    {
      "buffer": 0,
      "byteOffset": 22464,
      "byteLength": 1320,
      "target": 34963
    }
  ],
  "images": [
    {
      "uri": "Textures/colormap.png",
      "name": "colormap"
    }
  ],
  "materials": [
    {
      "pbrMetallicRoughness": {
        "baseColorTexture": {
          "index": 0,
          "extensions": {
            "KHR_texture_transform": {
              "texCoord": 0
            }
          }
        },
        "metallicFactor": 0
      },
      "doubleSided": true,
      "name": "colormap"
    }
  ],
  "meshes": [
    {
      "primitives": [
        {
          "attributes": {
            "POSITION": 0,
            "NORMAL": 1,
            "TANGENT": 2,
            "TEXCOORD_0": 3
          },
          "indices": 4,
          "material": 0
        }
      ],
      "name": "iron-fence-border"
    }
  ],
  "nodes": [
    {
      "mesh": 0,
      "name": "iron-fence-border"
    }
  ],
  "samplers": [
    {
      "magFilter": 9728,
      "minFilter": 9984
    }
  ],
  "textures": [
    {
      "sampler": 0,
      "source": 0,
      "name": "colormap"
    }
  ]
}