{
  "asset": {
    "generator": "UnityGLTF",
    "version": "2.0"
  },
  "extensionsUsed": [
    "KHR_texture_transform"
  ],
  "scene": 0,
  "scenes": [
    {
      "nodes": [
        0
      ],
      "name": "lantern-glass"
    }
  ],
  "accessors": [
    {
      "bufferView": 0,
      "componentType": 5126,
      "count": 258,
      "type": "VEC3",
      "max": [
        0.07295599579811096,
        0.2922997772693634,
        0.07295599579811096
      ],
      "min": [
        -0.07295599579811096,
        0,
        -0.07295599579811096
      ]
    },
    {
      "bufferView": 1,
      "componentType": 5126,
      "count": 258,
      "type": "VEC3",
      "max": [
        1,
        1,
        1
      ],
      "min": [
        -1,
        -1,
        -1
      ]
    },
    {
      "bufferView": 2,
      "componentType": 5126,
      "count": 258,
      "type": "VEC4",
      "max": [
        1,
        0.3826562762260437,
        1,
        1
      ],
      "min": [
        -1,
        -0.3826562762260437,
        -1,
        1
      ]
    },
    {
      "bufferView": 3,
      "componentType": 5126,
      "count": 258,
      "type": "VEC2",
      "max": [
        0.71875,
        0.7250000238418579
      ],
      "min": [
        0.59375,
        0.5249999761581421
      ]
    },
    {
      "bufferView": 4,
      "componentType": 5123,
      "count": 528,
      "type": "SCALAR",
      "max": [
        257
      ],
      "min": [
        0
      ]
    }
  ],
  "buffers": [
    {
      "uri": "lantern-glass_data.bin",
      "byteLength": 13440
    }
  ],
  "bufferViews": [
    {
      "buffer": 0,
      "byteLength": 3096,
      "byteStride": 12,
      "target": 34962,
      "byteOffset": 0
    },
    {
      "buffer": 0,
      "byteOffset": 3096,
      "byteLength": 3096,
      "byteStride": 12,
      "target": 34962
    },
    {
      "buffer": 0,
      "byteOffset": 6192,
      "byteLength": 4128,
      "target": 34962
    },
    {
      "buffer": 0,
      "byteOffset": 10320,
      "byteLength": 2064,
      "target": 34962
    },
    {
      "buffer": 0,
      "byteOffset": 12384,
      "byteLength": 1056,
      "target": 34963
    }
  ],
  "images": [
    {
      "uri": "Textures/colormap.png",
      "name": "colormap"
    }
  ],
  "materials": [
    {
      "pbrMetallicRoughness": {
        "baseColorTexture": {
          "index": 0,
          "extensions": {
            "KHR_texture_transform": {
              "texCoord": 0
            }
          }
        },
        "metallicFactor": 0
      },
      "doubleSided": true,
      "name": "colormap"
    }
  ],
  "meshes": [
    {
      "primitives": [
        {
          "attributes": {
            "POSITION": 0,
            "NORMAL": 1,
            "TANGENT": 2,
            "TEXCOORD_0": 3
          },
          "indices": 4,
          "material": 0
        }
      ],
      "name": "lantern-glass"
    }
  ],
  "nodes": [
    {
      "mesh": 0,
      "name": "lantern-glass"
    }
  ],
  "samplers": [
    {
      "magFilter": 9728,
      "minFilter": 9984
    }
  ],
  "textures": [
    {
      "sampler": 0,
      "source": 0,
      "name": "colormap"
    }
  ]
}