{
  "asset": {
    "generator": "UnityGLTF",
    "version": "2.0"
  },
  "extensionsUsed": [
    "KHR_texture_transform"
  ],
  "scene": 0,
  "scenes": [
    {
      "nodes": [
        0
      ],
      "name": "lightpost-all"
    }
  ],
  "accessors": [
    {
      "bufferView": 0,
      "componentType": 5126,
      "count": 2076,
      "type": "VEC3",
      "max": [
        0.3109341859817505,
        1.3186999559402466,
        0.31126677989959717
      ],
      "min": [
        -0.311599463224411,
        0,
        -0.31126677989959717
      ]
    },
    {
      "bufferView": 1,
      "componentType": 5126,
      "count": 2076,
      "type": "VEC3",
      "max": [
        1.0000001192092896,
        1,
        1.0000001192092896
      ],
      "min": [
        -1.0000001192092896,
        -1,
        -1.0000001192092896
      ]
    },
    {
      "bufferView": 2,
      "componentType": 5126,
      "count": 2076,
      "type": "VEC4",
      "max": [
        1.0000001192092896,
        0.3826562762260437,
        1.0000001192092896,
        1
      ],
      "min": [
        -1.0000001192092896,
        -0.3826562762260437,
        -1.0000001192092896,
        -1
      ]
    },
    {
      "bufferView": 3,
      "componentType": 5126,
      "count": 2076,
      "type": "VEC2",
      "max": [
        0.84375,
        0.9750000238418579
      ],
      "min": [
        0.59375,
        0.5249999761581421
      ]
    },
    {
      "bufferView": 4,
      "componentType": 5123,
      "count": 4074,
      "type": "SCALAR",
      "max": [
        2075
      ],
      "min": [
        0
      ]
    }
  ],
  "buffers": [
    {
      "uri": "lightpost-all_data.bin",
      "byteLength": 107796
    }
  ],
  "bufferViews": [
    {
      "buffer": 0,
      "byteLength": 24912,
      "byteStride": 12,
      "target": 34962,
      "byteOffset": 0
    },
    {
      "buffer": 0,
      "byteOffset": 24912,
      "byteLength": 24912,
      "byteStride": 12,
      "target": 34962
    },
    {
      "buffer": 0,
      "byteOffset": 49824,
      "byteLength": 33216,
      "target": 34962
    },
    {
      "buffer": 0,
      "byteOffset": 83040,
      "byteLength": 16608,
      "target": 34962
    },
    {
      "buffer": 0,
      "byteOffset": 99648,
      "byteLength": 8148,
      "target": 34963
    }
  ],
  "images": [
    {
      "uri": "Textures/colormap.png",
      "name": "colormap"
    }
  ],
  "materials": [
    {
      "pbrMetallicRoughness": {
        "baseColorTexture": {
          "index": 0,
          "extensions": {
            "KHR_texture_transform": {
              "texCoord": 0
            }
          }
        },
        "metallicFactor": 0
      },
      "doubleSided": true,
      "name": "colormap"
    }
  ],
  "meshes": [
    {
      "primitives": [
        {
          "attributes": {
            "POSITION": 0,
            "NORMAL": 1,
            "TANGENT": 2,
            "TEXCOORD_0": 3
          },
          "indices": 4,
          "material": 0
        }
      ],
      "name": "lightpost-all"
    }
  ],
  "nodes": [
    {
      "mesh": 0,
      "name": "lightpost-all"
    }
  ],
  "samplers": [
    {
      "magFilter": 9728,
      "minFilter": 9984
    }
  ],
  "textures": [
    {
      "sampler": 0,
      "source": 0,
      "name": "colormap"
    }
  ]
}