{
  "asset": {
    "generator": "UnityGLTF",
    "version": "2.0"
  },
  "extensionsUsed": [
    "KHR_texture_transform"
  ],
  "scene": 0,
  "scenes": [
    {
      "nodes": [
        0
      ],
      "name": "pine-fall-crooked"
    }
  ],
  "accessors": [
    {
      "bufferView": 0,
      "componentType": 5126,
      "count": 512,
      "type": "VEC3",
      "max": [
        0.6038139462471008,
        2.038041830062866,
        0.6672786474227905
      ],
      "min": [
        -0.5700545907020569,
        0,
        -0.6672786474227905
      ]
    },
    {
      "bufferView": 1,
      "componentType": 5126,
      "count": 512,
      "type": "VEC3",
      "max": [
        0.995705783367157,
        0.967199981212616,
        0.9570471048355103
      ],
      "min": [
        -0.995705783367157,
        -1,
        -0.9736202359199524
      ]
    },
    {
      "bufferView": 2,
      "componentType": 5126,
      "count": 512,
      "type": "VEC4",
      "max": [
        1,
        0.12706464529037476,
        1,
        1
      ],
      "min": [
        -0.996492862701416,
        -0.14850468933582306,
        -1,
        -1
      ]
    },
    {
      "bufferView": 3,
      "componentType": 5126,
      "count": 512,
      "type": "VEC2",
      "max": [
        0.46875,
        0.9750000238418579
      ],
      "min": [
        0.09375,
        0.5249999761581421
      ]
    },
    {
      "bufferView": 4,
      "componentType": 5123,
      "count": 834,
      "type": "SCALAR",
      "max": [
        511
      ],
      "min": [
        0
      ]
    }
  ],
  "buffers": [
    {
      "uri": "pine-fall-crooked_data.bin",
      "byteLength": 26244
    }
  ],
  "bufferViews": [
    {
      "buffer": 0,
      "byteLength": 6144,
      "byteStride": 12,
      "target": 34962,
      "byteOffset": 0
    },
    {
      "buffer": 0,
      "byteOffset": 6144,
      "byteLength": 6144,
      "byteStride": 12,
      "target": 34962
    },
    {
      "buffer": 0,
      "byteOffset": 12288,
      "byteLength": 8192,
      "target": 34962
    },
    {
      "buffer": 0,
      "byteOffset": 20480,
      "byteLength": 4096,
      "target": 34962
    },
    {
      "buffer": 0,
      "byteOffset": 24576,
      "byteLength": 1668,
      "target": 34963
    }
  ],
  "images": [
    {
      "uri": "Textures/colormap.png",
      "name": "colormap"
    }
  ],
  "materials": [
    {
      "pbrMetallicRoughness": {
        "baseColorTexture": {
          "index": 0,
          "extensions": {
            "KHR_texture_transform": {
              "texCoord": 0
            }
          }
        },
        "metallicFactor": 0
      },
      "doubleSided": true,
      "name": "colormap"
    }
  ],
  "meshes": [
    {
      "primitives": [
        {
          "attributes": {
            "POSITION": 0,
            "NORMAL": 1,
            "TANGENT": 2,
            "TEXCOORD_0": 3
          },
          "indices": 4,
          "material": 0
        }
      ],
      "name": "pine-fall-crooked"
    }
  ],
  "nodes": [
    {
      "mesh": 0,
      "name": "pine-fall-crooked"
    }
  ],
  "samplers": [
    {
      "magFilter": 9728,
      "minFilter": 9984
    }
  ],
  "textures": [
    {
      "sampler": 0,
      "source": 0,
      "name": "colormap"
    }
  ]
}