{
  "asset": {
    "generator": "UnityGLTF",
    "version": "2.0"
  },
  "extensionsUsed": [
    "KHR_texture_transform"
  ],
  "scene": 0,
  "scenes": [
    {
      "nodes": [
        0
      ],
      "name": "pumpkin"
    }
  ],
  "accessors": [
    {
      "bufferView": 0,
      "componentType": 5126,
      "count": 112,
      "type": "VEC3",
      "max": [
        0.1784999966621399,
        0.2582799792289734,
        0.15458600223064423
      ],
      "min": [
        -0.1784999966621399,
        0,
        -0.15458600223064423
      ]
    },
    {
      "bufferView": 1,
      "componentType": 5126,
      "count": 112,
      "type": "VEC3",
      "max": [
        0.9970757961273193,
        1,
        0.999739944934845
      ],
      "min": [
        -0.9998685121536255,
        -1,
        -0.999739944934845
      ]
    },
    {
      "bufferView": 2,
      "componentType": 5126,
      "count": 112,
      "type": "VEC4",
      "max": [
        1,
        0.21719342470169067,
        1,
        1
      ],
      "min": [
        -1,
        -0.21719343960285187,
        -1,
        1
      ]
    },
    {
      "bufferView": 3,
      "componentType": 5126,
      "count": 112,
      "type": "VEC2",
      "max": [
        0.59375,
        0.9750000238418579
      ],
      "min": [
        0.46875,
        0.5249999761581421
      ]
    },
    {
      "bufferView": 4,
      "componentType": 5121,
      "count": 204,
      "type": "SCALAR",
      "max": [
        111
      ],
      "min": [
        0
      ]
    }
  ],
  "buffers": [
    {
      "uri": "pumpkin_data.bin",
      "byteLength": 5580
    }
  ],
  "bufferViews": [
    {
      "buffer": 0,
      "byteLength": 1344,
      "byteStride": 12,
      "target": 34962,
      "byteOffset": 0
    },
    {
      "buffer": 0,
      "byteOffset": 1344,
      "byteLength": 1344,
      "byteStride": 12,
      "target": 34962
    },
    {
      "buffer": 0,
      "byteOffset": 2688,
      "byteLength": 1792,
      "target": 34962
    },
    {
      "buffer": 0,
      "byteOffset": 4480,
      "byteLength": 896,
      "target": 34962
    },
    {
      "buffer": 0,
      "byteOffset": 5376,
      "byteLength": 204,
      "target": 34963
    }
  ],
  "images": [
    {
      "uri": "Textures/colormap.png",
      "name": "colormap"
    }
  ],
  "materials": [
    {
      "pbrMetallicRoughness": {
        "baseColorTexture": {
          "index": 0,
          "extensions": {
            "KHR_texture_transform": {
              "texCoord": 0
            }
          }
        },
        "metallicFactor": 0
      },
      "doubleSided": true,
      "name": "colormap"
    }
  ],
  "meshes": [
    {
      "primitives": [
        {
          "attributes": {
            "POSITION": 0,
            "NORMAL": 1,
            "TANGENT": 2,
            "TEXCOORD_0": 3
          },
          "indices": 4,
          "material": 0
        }
      ],
      "name": "pumpkin"
    }
  ],
  "nodes": [
    {
      "mesh": 0,
      "name": "pumpkin"
    }
  ],
  "samplers": [
    {
      "magFilter": 9728,
      "minFilter": 9984
    }
  ],
  "textures": [
    {
      "sampler": 0,
      "source": 0,
      "name": "colormap"
    }
  ]
}