{
  "asset": {
    "generator": "UnityGLTF",
    "version": "2.0"
  },
  "extensionsUsed": [
    "KHR_texture_transform"
  ],
  "scene": 0,
  "scenes": [
    {
      "nodes": [
        0
      ],
      "name": "road"
    }
  ],
  "accessors": [
    {
      "bufferView": 0,
      "componentType": 5126,
      "count": 480,
      "type": "VEC3",
      "max": [
        0.3783878684043884,
        0.04331520199775696,
        0.39342787861824036
      ],
      "min": [
        -0.3783878684043884,
        0,
        -0.39342787861824036
      ]
    },
    {
      "bufferView": 1,
      "componentType": 5126,
      "count": 480,
      "type": "VEC3",
      "max": [
        0.9683364033699036,
        1,
        0.9683364033699036
      ],
      "min": [
        -0.9683364033699036,
        -1,
        -0.9683364033699036
      ]
    },
    {
      "bufferView": 2,
      "componentType": 5126,
      "count": 480,
      "type": "VEC4",
      "max": [
        1,
        0,
        1,
        1
      ],
      "min": [
        -1,
        0,
        -1,
        1
      ]
    },
    {
      "bufferView": 3,
      "componentType": 5126,
      "count": 480,
      "type": "VEC2",
      "max": [
        0.84375,
        0.9750000238418579
      ],
      "min": [
        0.84375,
        0.7749999761581421
      ]
    },
    {
      "bufferView": 4,
      "componentType": 5123,
      "count": 720,
      "type": "SCALAR",
      "max": [
        479
      ],
      "min": [
        0
      ]
    }
  ],
  "buffers": [
    {
      "uri": "road_data.bin",
      "byteLength": 24480
    }
  ],
  "bufferViews": [
    {
      "buffer": 0,
      "byteLength": 5760,
      "byteStride": 12,
      "target": 34962,
      "byteOffset": 0
    },
    {
      "buffer": 0,
      "byteOffset": 5760,
      "byteLength": 5760,
      "byteStride": 12,
      "target": 34962
    },
    {
      "buffer": 0,
      "byteOffset": 11520,
      "byteLength": 7680,
      "target": 34962
    },
    {
      "buffer": 0,
      "byteOffset": 19200,
      "byteLength": 3840,
      "target": 34962
    },
    {
      "buffer": 0,
      "byteOffset": 23040,
      "byteLength": 1440,
      "target": 34963
    }
  ],
  "images": [
    {
      "uri": "Textures/colormap.png",
      "name": "colormap"
    }
  ],
  "materials": [
    {
      "pbrMetallicRoughness": {
        "baseColorTexture": {
          "index": 0,
          "extensions": {
            "KHR_texture_transform": {
              "texCoord": 0
            }
          }
        },
        "metallicFactor": 0
      },
      "doubleSided": true,
      "name": "colormap"
    }
  ],
  "meshes": [
    {
      "primitives": [
        {
          "attributes": {
            "POSITION": 0,
            "NORMAL": 1,
            "TANGENT": 2,
            "TEXCOORD_0": 3
          },
          "indices": 4,
          "material": 0
        }
      ],
      "name": "road"
    }
  ],
  "nodes": [
    {
      "mesh": 0,
      "name": "road"
    }
  ],
  "samplers": [
    {
      "magFilter": 9728,
      "minFilter": 9984
    }
  ],
  "textures": [
    {
      "sampler": 0,
      "source": 0,
      "name": "colormap"
    }
  ]
}