{
  "asset": {
    "generator": "UnityGLTF",
    "version": "2.0"
  },
  "extensionsUsed": [
    "KHR_texture_transform"
  ],
  "scene": 0,
  "scenes": [
    {
      "nodes": [
        0
      ],
      "name": "shovel-dirt"
    }
  ],
  "accessors": [
    {
      "bufferView": 0,
      "componentType": 5126,
      "count": 244,
      "type": "VEC3",
      "max": [
        0.3232330083847046,
        0.5737653970718384,
        0.2528649866580963
      ],
      "min": [
        -0.27615272998809814,
        0,
        -0.2528649866580963
      ]
    },
    {
      "bufferView": 1,
      "componentType": 5126,
      "count": 244,
      "type": "VEC3",
      "max": [
        0.9999452829360962,
        1,
        0.9934061765670776
      ],
      "min": [
        -0.9198226928710938,
        -1,
        -0.965925931930542
      ]
    },
    {
      "bufferView": 2,
      "componentType": 5126,
      "count": 244,
      "type": "VEC4",
      "max": [
        1,
        0.22123253345489502,
        1,
        1
      ],
      "min": [
        -1,
        -0.21349114179611206,
        -1,
        1
      ]
    },
    {
      "bufferView": 3,
      "componentType": 5126,
      "count": 244,
      "type": "VEC2",
      "max": [
        0.84375,
        0.9144544005393982
      ],
      "min": [
        0.09375,
        0.5249999761581421
      ]
    },
    {
      "bufferView": 4,
      "componentType": 5121,
      "count": 480,
      "type": "SCALAR",
      "max": [
        243
      ],
      "min": [
        0
      ]
    }
  ],
  "buffers": [
    {
      "uri": "shovel-dirt_data.bin",
      "byteLength": 12192
    }
  ],
  "bufferViews": [
    {
      "buffer": 0,
      "byteLength": 2928,
      "byteStride": 12,
      "target": 34962,
      "byteOffset": 0
    },
    {
      "buffer": 0,
      "byteOffset": 2928,
      "byteLength": 2928,
      "byteStride": 12,
      "target": 34962
    },
    {
      "buffer": 0,
      "byteOffset": 5856,
      "byteLength": 3904,
      "target": 34962
    },
    {
      "buffer": 0,
      "byteOffset": 9760,
      "byteLength": 1952,
      "target": 34962
    },
    {
      "buffer": 0,
      "byteOffset": 11712,
      "byteLength": 480,
      "target": 34963
    }
  ],
  "images": [
    {
      "uri": "Textures/colormap.png",
      "name": "colormap"
    }
  ],
  "materials": [
    {
      "pbrMetallicRoughness": {
        "baseColorTexture": {
          "index": 0,
          "extensions": {
            "KHR_texture_transform": {
              "texCoord": 0
            }
          }
        },
        "metallicFactor": 0
      },
      "doubleSided": true,
      "name": "colormap"
    }
  ],
  "meshes": [
    {
      "primitives": [
        {
          "attributes": {
            "POSITION": 0,
            "NORMAL": 1,
            "TANGENT": 2,
            "TEXCOORD_0": 3
          },
          "indices": 4,
          "material": 0
        }
      ],
      "name": "shovel-dirt"
    }
  ],
  "nodes": [
    {
      "mesh": 0,
      "name": "shovel-dirt"
    }
  ],
  "samplers": [
    {
      "magFilter": 9728,
      "minFilter": 9984
    }
  ],
  "textures": [
    {
      "sampler": 0,
      "source": 0,
      "name": "colormap"
    }
  ]
}