{
  "asset": {
    "generator": "UnityGLTF",
    "version": "2.0"
  },
  "extensionsUsed": [
    "KHR_texture_transform"
  ],
  "scene": 0,
  "scenes": [
    {
      "nodes": [
        0
      ],
      "name": "shovel"
    }
  ],
  "accessors": [
    {
      "bufferView": 0,
      "componentType": 5126,
      "count": 202,
      "type": "VEC3",
      "max": [
        0.09600000083446503,
        0.03199999779462814,
        0.39000001549720764
      ],
      "min": [
        -0.09600000083446503,
        0,
        -0.24000000953674316
      ]
    },
    {
      "bufferView": 1,
      "componentType": 5126,
      "count": 202,
      "type": "VEC3",
      "max": [
        1,
        1,
        1
      ],
      "min": [
        -1,
        -1,
        -1
      ]
    },
    {
      "bufferView": 2,
      "componentType": 5126,
      "count": 202,
      "type": "VEC4",
      "max": [
        1,
        0,
        1,
        1
      ],
      "min": [
        -1,
        0,
        -1,
        1
      ]
    },
    {
      "bufferView": 3,
      "componentType": 5126,
      "count": 202,
      "type": "VEC2",
      "max": [
        0.84375,
        0.9750000238418579
      ],
      "min": [
        0.09375,
        0.5249999761581421
      ]
    },
    {
      "bufferView": 4,
      "componentType": 5121,
      "count": 396,
      "type": "SCALAR",
      "max": [
        201
      ],
      "min": [
        0
      ]
    }
  ],
  "buffers": [
    {
      "uri": "shovel_data.bin",
      "byteLength": 10092
    }
  ],
  "bufferViews": [
    {
      "buffer": 0,
      "byteLength": 2424,
      "byteStride": 12,
      "target": 34962,
      "byteOffset": 0
    },
    {
      "buffer": 0,
      "byteOffset": 2424,
      "byteLength": 2424,
      "byteStride": 12,
      "target": 34962
    },
    {
      "buffer": 0,
      "byteOffset": 4848,
      "byteLength": 3232,
      "target": 34962
    },
    {
      "buffer": 0,
      "byteOffset": 8080,
      "byteLength": 1616,
      "target": 34962
    },
    {
      "buffer": 0,
      "byteOffset": 9696,
      "byteLength": 396,
      "target": 34963
    }
  ],
  "images": [
    {
      "uri": "Textures/colormap.png",
      "name": "colormap"
    }
  ],
  "materials": [
    {
      "pbrMetallicRoughness": {
        "baseColorTexture": {
          "index": 0,
          "extensions": {
            "KHR_texture_transform": {
              "texCoord": 0
            }
          }
        },
        "metallicFactor": 0
      },
      "doubleSided": true,
      "name": "colormap"
    }
  ],
  "meshes": [
    {
      "primitives": [
        {
          "attributes": {
            "POSITION": 0,
            "NORMAL": 1,
            "TANGENT": 2,
            "TEXCOORD_0": 3
          },
          "indices": 4,
          "material": 0
        }
      ],
      "name": "shovel"
    }
  ],
  "nodes": [
    {
      "mesh": 0,
      "name": "shovel"
    }
  ],
  "samplers": [
    {
      "magFilter": 9728,
      "minFilter": 9984
    }
  ],
  "textures": [
    {
      "sampler": 0,
      "source": 0,
      "name": "colormap"
    }
  ]
}