{
  "asset": {
    "generator": "UnityGLTF",
    "version": "2.0"
  },
  "extensionsUsed": [
    "KHR_texture_transform"
  ],
  "scene": 0,
  "scenes": [
    {
      "nodes": [
        0
      ],
      "name": "stone-wall-curve"
    }
  ],
  "accessors": [
    {
      "bufferView": 0,
      "componentType": 5126,
      "count": 592,
      "type": "VEC3",
      "max": [
        0.5,
        0.6519140005111694,
        0.5
      ],
      "min": [
        -0.5,
        0,
        -0.5
      ]
    },
    {
      "bufferView": 1,
      "componentType": 5126,
      "count": 592,
      "type": "VEC3",
      "max": [
        1,
        1,
        1
      ],
      "min": [
        -0.9978589415550232,
        -1,
        -0.9978589415550232
      ]
    },
    {
      "bufferView": 2,
      "componentType": 5126,
      "count": 592,
      "type": "VEC4",
      "max": [
        1,
        0.021524962037801743,
        0.9978589415550232,
        1
      ],
      "min": [
        -1,
        -0.02167750708758831,
        -1,
        1
      ]
    },
    {
      "bufferView": 3,
      "componentType": 5126,
      "count": 592,
      "type": "VEC2",
      "max": [
        0.84375,
        0.9750000238418579
      ],
      "min": [
        0.09375,
        0.7749999761581421
      ]
    },
    {
      "bufferView": 4,
      "componentType": 5123,
      "count": 1080,
      "type": "SCALAR",
      "max": [
        591
      ],
      "min": [
        0
      ]
    }
  ],
  "buffers": [
    {
      "uri": "stone-wall-curve_data.bin",
      "byteLength": 30576
    }
  ],
  "bufferViews": [
    {
      "buffer": 0,
      "byteLength": 7104,
      "byteStride": 12,
      "target": 34962,
      "byteOffset": 0
    },
    {
      "buffer": 0,
      "byteOffset": 7104,
      "byteLength": 7104,
      "byteStride": 12,
      "target": 34962
    },
    {
      "buffer": 0,
      "byteOffset": 14208,
      "byteLength": 9472,
      "target": 34962
    },
    {
      "buffer": 0,
      "byteOffset": 23680,
      "byteLength": 4736,
      "target": 34962
    },
    {
      "buffer": 0,
      "byteOffset": 28416,
      "byteLength": 2160,
      "target": 34963
    }
  ],
  "images": [
    {
      "uri": "Textures/colormap.png",
      "name": "colormap"
    }
  ],
  "materials": [
    {
      "pbrMetallicRoughness": {
        "baseColorTexture": {
          "index": 0,
          "extensions": {
            "KHR_texture_transform": {
              "texCoord": 0
            }
          }
        },
        "metallicFactor": 0
      },
      "doubleSided": true,
      "name": "colormap"
    }
  ],
  "meshes": [
    {
      "primitives": [
        {
          "attributes": {
            "POSITION": 0,
            "NORMAL": 1,
            "TANGENT": 2,
            "TEXCOORD_0": 3
          },
          "indices": 4,
          "material": 0
        }
      ],
      "name": "stone-wall-curve"
    }
  ],
  "nodes": [
    {
      "mesh": 0,
      "name": "stone-wall-curve"
    }
  ],
  "samplers": [
    {
      "magFilter": 9728,
      "minFilter": 9984
    }
  ],
  "textures": [
    {
      "sampler": 0,
      "source": 0,
      "name": "colormap"
    }
  ]
}