{
  "asset": {
    "generator": "UnityGLTF",
    "version": "2.0"
  },
  "extensionsUsed": [
    "KHR_texture_transform"
  ],
  "scene": 0,
  "scenes": [
    {
      "nodes": [
        0
      ],
      "name": "trunk"
    }
  ],
  "accessors": [
    {
      "bufferView": 0,
      "componentType": 5126,
      "count": 220,
      "type": "VEC3",
      "max": [
        0.24230420589447021,
        0.3725999891757965,
        0.2754000127315521
      ],
      "min": [
        -0.2510368227958679,
        0,
        -0.2754000127315521
      ]
    },
    {
      "bufferView": 1,
      "componentType": 5126,
      "count": 220,
      "type": "VEC3",
      "max": [
        1,
        1,
        0.9761306643486023
      ],
      "min": [
        -1,
        -1,
        -0.9761306643486023
      ]
    },
    {
      "bufferView": 2,
      "componentType": 5126,
      "count": 220,
      "type": "VEC4",
      "max": [
        1,
        0,
        1,
        1
      ],
      "min": [
        -1,
        0,
        -1,
        1
      ]
    },
    {
      "bufferView": 3,
      "componentType": 5126,
      "count": 220,
      "type": "VEC2",
      "max": [
        0.34375,
        0.7250000238418579
      ],
      "min": [
        0.09375,
        0.5249999761581421
      ]
    },
    {
      "bufferView": 4,
      "componentType": 5121,
      "count": 372,
      "type": "SCALAR",
      "max": [
        219
      ],
      "min": [
        0
      ]
    }
  ],
  "buffers": [
    {
      "uri": "trunk_data.bin",
      "byteLength": 10932
    }
  ],
  "bufferViews": [
    {
      "buffer": 0,
      "byteLength": 2640,
      "byteStride": 12,
      "target": 34962,
      "byteOffset": 0
    },
    {
      "buffer": 0,
      "byteOffset": 2640,
      "byteLength": 2640,
      "byteStride": 12,
      "target": 34962
    },
    {
      "buffer": 0,
      "byteOffset": 5280,
      "byteLength": 3520,
      "target": 34962
    },
    {
      "buffer": 0,
      "byteOffset": 8800,
      "byteLength": 1760,
      "target": 34962
    },
    {
      "buffer": 0,
      "byteOffset": 10560,
      "byteLength": 372,
      "target": 34963
    }
  ],
  "images": [
    {
      "uri": "Textures/colormap.png",
      "name": "colormap"
    }
  ],
  "materials": [
    {
      "pbrMetallicRoughness": {
        "baseColorTexture": {
          "index": 0,
          "extensions": {
            "KHR_texture_transform": {
              "texCoord": 0
            }
          }
        },
        "metallicFactor": 0
      },
      "doubleSided": true,
      "name": "colormap"
    }
  ],
  "meshes": [
    {
      "primitives": [
        {
          "attributes": {
            "POSITION": 0,
            "NORMAL": 1,
            "TANGENT": 2,
            "TEXCOORD_0": 3
          },
          "indices": 4,
          "material": 0
        }
      ],
      "name": "trunk"
    }
  ],
  "nodes": [
    {
      "mesh": 0,
      "name": "trunk"
    }
  ],
  "samplers": [
    {
      "magFilter": 9728,
      "minFilter": 9984
    }
  ],
  "textures": [
    {
      "sampler": 0,
      "source": 0,
      "name": "colormap"
    }
  ]
}