{
  "asset": {
    "generator": "UnityGLTF",
    "version": "2.0"
  },
  "extensionsUsed": [
    "KHR_texture_transform"
  ],
  "scene": 0,
  "scenes": [
    {
      "nodes": [
        0
      ],
      "name": "trunk-long"
    }
  ],
  "accessors": [
    {
      "bufferView": 0,
      "componentType": 5126,
      "count": 304,
      "type": "VEC3",
      "max": [
        0.24723629653453827,
        1.2943751811981201,
        0.2754000127315521
      ],
      "min": [
        -0.2970116138458252,
        0,
        -0.3364035189151764
      ]
    },
    {
      "bufferView": 1,
      "componentType": 5126,
      "count": 304,
      "type": "VEC3",
      "max": [
        1,
        1,
        0.8660331964492798
      ],
      "min": [
        -1,
        -1,
        -0.8660331964492798
      ]
    },
    {
      "bufferView": 2,
      "componentType": 5126,
      "count": 304,
      "type": "VEC4",
      "max": [
        1,
        0.7026441097259521,
        1,
        1
      ],
      "min": [
        -1,
        -0.7026441097259521,
        -1,
        1
      ]
    },
    {
      "bufferView": 3,
      "componentType": 5126,
      "count": 304,
      "type": "VEC2",
      "max": [
        0.09375,
        0.7250000238418579
      ],
      "min": [
        0.09375,
        0.5249999761581421
      ]
    },
    {
      "bufferView": 4,
      "componentType": 5123,
      "count": 474,
      "type": "SCALAR",
      "max": [
        303
      ],
      "min": [
        0
      ]
    }
  ],
  "buffers": [
    {
      "uri": "trunk-long_data.bin",
      "byteLength": 15540
    }
  ],
  "bufferViews": [
    {
      "buffer": 0,
      "byteLength": 3648,
      "byteStride": 12,
      "target": 34962,
      "byteOffset": 0
    },
    {
      "buffer": 0,
      "byteOffset": 3648,
      "byteLength": 3648,
      "byteStride": 12,
      "target": 34962
    },
    {
      "buffer": 0,
      "byteOffset": 7296,
      "byteLength": 4864,
      "target": 34962
    },
    {
      "buffer": 0,
      "byteOffset": 12160,
      "byteLength": 2432,
      "target": 34962
    },
    {
      "buffer": 0,
      "byteOffset": 14592,
      "byteLength": 948,
      "target": 34963
    }
  ],
  "images": [
    {
      "uri": "Textures/colormap.png",
      "name": "colormap"
    }
  ],
  "materials": [
    {
      "pbrMetallicRoughness": {
        "baseColorTexture": {
          "index": 0,
          "extensions": {
            "KHR_texture_transform": {
              "texCoord": 0
            }
          }
        },
        "metallicFactor": 0
      },
      "doubleSided": true,
      "name": "colormap"
    }
  ],
  "meshes": [
    {
      "primitives": [
        {
          "attributes": {
            "POSITION": 0,
            "NORMAL": 1,
            "TANGENT": 2,
            "TEXCOORD_0": 3
          },
          "indices": 4,
          "material": 0
        }
      ],
      "name": "trunk-long"
    }
  ],
  "nodes": [
    {
      "mesh": 0,
      "name": "trunk-long"
    }
  ],
  "samplers": [
    {
      "magFilter": 9728,
      "minFilter": 9984
    }
  ],
  "textures": [
    {
      "sampler": 0,
      "source": 0,
      "name": "colormap"
    }
  ]
}