{
  "asset": {
    "generator": "UnityGLTF",
    "version": "2.0"
  },
  "extensionsUsed": [
    "KHR_texture_transform"
  ],
  "scene": 0,
  "scenes": [
    {
      "nodes": [
        0
      ],
      "name": "urn"
    }
  ],
  "accessors": [
    {
      "bufferView": 0,
      "componentType": 5126,
      "count": 136,
      "type": "VEC3",
      "max": [
        0.08710800111293793,
        0.3100000023841858,
        0.08710800111293793
      ],
      "min": [
        -0.08710800111293793,
        0,
        -0.08710800111293793
      ]
    },
    {
      "bufferView": 1,
      "componentType": 5126,
      "count": 136,
      "type": "VEC3",
      "max": [
        1,
        1,
        1
      ],
      "min": [
        -1,
        -1,
        -1
      ]
    },
    {
      "bufferView": 2,
      "componentType": 5126,
      "count": 136,
      "type": "VEC4",
      "max": [
        1,
        0,
        1,
        1
      ],
      "min": [
        -1,
        0,
        -1,
        1
      ]
    },
    {
      "bufferView": 3,
      "componentType": 5126,
      "count": 136,
      "type": "VEC2",
      "max": [
        0.84375,
        0.8653225898742676
      ],
      "min": [
        0.59375,
        0.5249999761581421
      ]
    },
    {
      "bufferView": 4,
      "componentType": 5121,
      "count": 228,
      "type": "SCALAR",
      "max": [
        135
      ],
      "min": [
        0
      ]
    },
    {
      "bufferView": 5,
      "componentType": 5126,
      "count": 88,
      "type": "VEC3",
      "max": [
        0.08710800111293793,
        0.07999999821186066,
        0.08710800111293793
      ],
      "min": [
        -0.08710800111293793,
        0,
        -0.08710800111293793
      ]
    },
    {
      "bufferView": 6,
      "componentType": 5126,
      "count": 88,
      "type": "VEC3",
      "max": [
        1,
        1,
        1
      ],
      "min": [
        -1,
        -1,
        -1
      ]
    },
    {
      "bufferView": 7,
      "componentType": 5126,
      "count": 88,
      "type": "VEC4",
      "max": [
        1,
        0,
        1,
        1
      ],
      "min": [
        -1,
        0,
        -1,
        1
      ]
    },
    {
      "bufferView": 8,
      "componentType": 5126,
      "count": 88,
      "type": "VEC2",
      "max": [
        0.84375,
        0.9750000238418579
      ],
      "min": [
        0.59375,
        0.574999988079071
      ]
    },
    {
      "bufferView": 9,
      "componentType": 5121,
      "count": 156,
      "type": "SCALAR",
      "max": [
        87
      ],
      "min": [
        0
      ]
    }
  ],
  "buffers": [
    {
      "uri": "urn_data.bin",
      "byteLength": 11136
    }
  ],
  "bufferViews": [
    {
      "buffer": 0,
      "byteLength": 1632,
      "byteStride": 12,
      "target": 34962,
      "byteOffset": 0
    },
    {
      "buffer": 0,
      "byteOffset": 1632,
      "byteLength": 1632,
      "byteStride": 12,
      "target": 34962
    },
    {
      "buffer": 0,
      "byteOffset": 3264,
      "byteLength": 2176,
      "target": 34962
    },
    {
      "buffer": 0,
      "byteOffset": 5440,
      "byteLength": 1088,
      "target": 34962
    },
    {
      "buffer": 0,
      "byteOffset": 6528,
      "byteLength": 228,
      "target": 34963
    },
    {
      "buffer": 0,
      "byteOffset": 6756,
      "byteLength": 1056,
      "byteStride": 12,
      "target": 34962
    },
    {
      "buffer": 0,
      "byteOffset": 7812,
      "byteLength": 1056,
      "byteStride": 12,
      "target": 34962
    },
    {
      "buffer": 0,
      "byteOffset": 8868,
      "byteLength": 1408,
      "target": 34962
    },
    {
      "buffer": 0,
      "byteOffset": 10276,
      "byteLength": 704,
      "target": 34962
    },
    {
      "buffer": 0,
      "byteOffset": 10980,
      "byteLength": 156,
      "target": 34963
    }
  ],
  "images": [
    {
      "uri": "Textures/colormap.png",
      "name": "colormap"
    }
  ],
  "materials": [
    {
      "pbrMetallicRoughness": {
        "baseColorTexture": {
          "index": 0,
          "extensions": {
            "KHR_texture_transform": {
              "texCoord": 0
            }
          }
        },
        "metallicFactor": 0
      },
      "doubleSided": true,
      "name": "colormap"
    }
  ],
  "meshes": [
    {
      "primitives": [
        {
          "attributes": {
            "POSITION": 0,
            "NORMAL": 1,
            "TANGENT": 2,
            "TEXCOORD_0": 3
          },
          "indices": 4,
          "material": 0
        }
      ],
      "name": "urn"
    },
    {
      "primitives": [
        {
          "attributes": {
            "POSITION": 5,
            "NORMAL": 6,
            "TANGENT": 7,
            "TEXCOORD_0": 8
          },
          "indices": 9,
          "material": 0
        }
      ],
      "name": "lid"
    }
  ],
  "nodes": [
    {
      "children": [
        1
      ],
      "mesh": 0,
      "name": "urn"
    },
    {
      "mesh": 1,
      "translation": [
        0,
        0.31,
        0
      ],
      "name": "lid"
    }
  ],
  "samplers": [
    {
      "magFilter": 9728,
      "minFilter": 9984
    }
  ],
  "textures": [
    {
      "sampler": 0,
      "source": 0,
      "name": "colormap"
    }
  ]
}